<svg width="223" height="35" viewBox="0 0 223 35" fill="none" xmlns="http://www.w3.org/2000/svg">
<path d="M33.91 20.23C33.91 23.09 34.97 24.52 37.09 24.52C37.55 24.52 38 24.46 38.44 24.34C38.9 24.22 39.27 24.07 39.55 23.89V15.82C39.33 15.78 39.05 15.75 38.71 15.73C38.37 15.69 38 15.67 37.6 15.67C36.38 15.67 35.46 16.09 34.84 16.93C34.22 17.75 33.91 18.85 33.91 20.23ZM29.35 20.11C29.35 18.89 29.53 17.78 29.89 16.78C30.27 15.76 30.81 14.89 31.51 14.17C32.21 13.43 33.07 12.86 34.09 12.46C35.11 12.06 36.27 11.86 37.57 11.86C38.11 11.86 38.67 11.89 39.25 11.95C39.85 11.99 40.43 12.05 40.99 12.13C41.57 12.21 42.12 12.31 42.64 12.43C43.16 12.53 43.62 12.64 44.02 12.76V33.55H39.55V27.61C39.05 27.83 38.53 28 37.99 28.12C37.45 28.24 36.87 28.3 36.25 28.3C34.01 28.3 32.3 27.57 31.12 26.11C29.94 24.63 29.35 22.63 29.35 20.11ZM52.0155 20.23C52.0155 23.09 53.0755 24.52 55.1955 24.52C55.6555 24.52 56.1055 24.46 56.5455 24.34C57.0055 24.22 57.3755 24.07 57.6555 23.89V15.82C57.4355 15.78 57.1555 15.75 56.8155 15.73C56.4755 15.69 56.1055 15.67 55.7055 15.67C54.4855 15.67 53.5655 16.09 52.9455 16.93C52.3255 17.75 52.0155 18.85 52.0155 20.23ZM47.4555 20.11C47.4555 18.89 47.6355 17.78 47.9955 16.78C48.3755 15.76 48.9155 14.89 49.6155 14.17C50.3155 13.43 51.1755 12.86 52.1955 12.46C53.2155 12.06 54.3755 11.86 55.6755 11.86C56.2155 11.86 56.7755 11.89 57.3555 11.95C57.9555 11.99 58.5355 12.05 59.0955 12.13C59.6755 12.21 60.2255 12.31 60.7455 12.43C61.2655 12.53 61.7255 12.64 62.1255 12.76V33.55H57.6555V27.61C57.1555 27.83 56.6355 28 56.0955 28.12C55.5555 28.24 54.9755 28.3 54.3555 28.3C52.1155 28.3 50.4055 27.57 49.2255 26.11C48.0455 24.63 47.4555 22.63 47.4555 20.11ZM74.2309 15.76C75.0709 14.34 75.8709 12.92 76.6309 11.5C77.3909 10.08 78.0909 8.65 78.7309 7.21H83.8909C82.7509 9.45 81.5709 11.62 80.3509 13.72C79.1309 15.82 77.8409 17.93 76.4809 20.05V28H71.8009V20.11C70.4409 17.99 69.1409 15.87 67.9009 13.75C66.6809 11.63 65.5009 9.45 64.3609 7.21H69.7909C70.4309 8.65 71.1209 10.08 71.8609 11.5C72.6009 12.92 73.3909 14.34 74.2309 15.76ZM98.2682 20.08C98.2682 21.32 98.0882 22.46 97.7282 23.5C97.3682 24.52 96.8482 25.4 96.1682 26.14C95.4882 26.86 94.6682 27.42 93.7082 27.82C92.7682 28.22 91.7082 28.42 90.5282 28.42C89.3682 28.42 88.3082 28.22 87.3482 27.82C86.4082 27.42 85.5982 26.86 84.9182 26.14C84.2382 25.4 83.7082 24.52 83.3282 23.5C82.9482 22.46 82.7582 21.32 82.7582 20.08C82.7582 18.84 82.9482 17.71 83.3282 16.69C83.7282 15.67 84.2682 14.8 84.9482 14.08C85.6482 13.36 86.4682 12.8 87.4082 12.4C88.3682 12 89.4082 11.8 90.5282 11.8C91.6682 11.8 92.7082 12 93.6482 12.4C94.6082 12.8 95.4282 13.36 96.1082 14.08C96.7882 14.8 97.3182 15.67 97.6982 16.69C98.0782 17.71 98.2682 18.84 98.2682 20.08ZM93.7082 20.08C93.7082 18.7 93.4282 17.62 92.8682 16.84C92.3282 16.04 91.5482 15.64 90.5282 15.64C89.5082 15.64 88.7182 16.04 88.1582 16.84C87.5982 17.62 87.3182 18.7 87.3182 20.08C87.3182 21.46 87.5982 22.56 88.1582 23.38C88.7182 24.18 89.5082 24.58 90.5282 24.58C91.5482 24.58 92.3282 24.18 92.8682 23.38C93.4282 22.56 93.7082 21.46 93.7082 20.08ZM115.201 27.46C114.441 27.68 113.461 27.88 112.261 28.06C111.061 28.26 109.801 28.36 108.481 28.36C107.141 28.36 106.021 28.18 105.121 27.82C104.241 27.46 103.541 26.96 103.021 26.32C102.501 25.66 102.131 24.88 101.911 23.98C101.691 23.08 101.581 22.09 101.581 21.01V12.22H106.051V20.47C106.051 21.91 106.241 22.95 106.621 23.59C107.001 24.23 107.711 24.55 108.751 24.55C109.071 24.55 109.411 24.54 109.771 24.52C110.131 24.48 110.451 24.44 110.731 24.4V12.22H115.201V27.46ZM119.247 8.29L123.717 7.57V12.22H129.087V15.94H123.717V21.49C123.717 22.43 123.877 23.18 124.197 23.74C124.537 24.3 125.207 24.58 126.207 24.58C126.687 24.58 127.177 24.54 127.677 24.46C128.197 24.36 128.667 24.23 129.087 24.07L129.717 27.55C129.177 27.77 128.577 27.96 127.917 28.12C127.257 28.28 126.447 28.36 125.487 28.36C124.267 28.36 123.257 28.2 122.457 27.88C121.657 27.54 121.017 27.08 120.537 26.5C120.057 25.9 119.717 25.18 119.517 24.34C119.337 23.5 119.247 22.57 119.247 21.55V8.29ZM146.197 27.46C145.437 27.68 144.457 27.88 143.257 28.06C142.057 28.26 140.797 28.36 139.477 28.36C138.137 28.36 137.017 28.18 136.117 27.82C135.237 27.46 134.537 26.96 134.017 26.32C133.497 25.66 133.127 24.88 132.907 23.98C132.687 23.08 132.577 22.09 132.577 21.01V12.22H137.047V20.47C137.047 21.91 137.237 22.95 137.617 23.59C137.997 24.23 138.707 24.55 139.747 24.55C140.067 24.55 140.407 24.54 140.767 24.52C141.127 24.48 141.447 24.44 141.727 24.4V12.22H146.197V27.46ZM160.503 19.99C160.503 17.11 159.443 15.67 157.323 15.67C156.863 15.67 156.403 15.73 155.943 15.85C155.503 15.97 155.143 16.12 154.863 16.3V24.43C155.083 24.47 155.363 24.51 155.703 24.55C156.043 24.57 156.413 24.58 156.813 24.58C158.033 24.58 158.953 24.16 159.573 23.32C160.193 22.48 160.503 21.37 160.503 19.99ZM165.063 20.11C165.063 21.37 164.873 22.51 164.493 23.53C164.133 24.55 163.603 25.42 162.903 26.14C162.203 26.86 161.343 27.42 160.323 27.82C159.303 28.2 158.143 28.39 156.843 28.39C156.303 28.39 155.733 28.36 155.133 28.3C154.553 28.26 153.973 28.2 153.393 28.12C152.833 28.04 152.293 27.95 151.773 27.85C151.253 27.73 150.793 27.61 150.393 27.49V5.44L154.863 4.72V12.58C155.363 12.36 155.883 12.19 156.423 12.07C156.963 11.95 157.543 11.89 158.163 11.89C159.283 11.89 160.273 12.09 161.133 12.49C161.993 12.87 162.713 13.42 163.293 14.14C163.873 14.86 164.313 15.73 164.613 16.75C164.913 17.75 165.063 18.87 165.063 20.11ZM167.748 20.23C167.748 18.83 167.958 17.61 168.378 16.57C168.818 15.51 169.388 14.63 170.088 13.93C170.788 13.23 171.588 12.7 172.488 12.34C173.408 11.98 174.348 11.8 175.308 11.8C177.548 11.8 179.318 12.49 180.618 13.87C181.918 15.23 182.568 17.24 182.568 19.9C182.568 20.16 182.558 20.45 182.538 20.77C182.518 21.07 182.498 21.34 182.478 21.58H172.338C172.438 22.5 172.868 23.23 173.628 23.77C174.388 24.31 175.408 24.58 176.688 24.58C177.508 24.58 178.308 24.51 179.088 24.37C179.888 24.21 180.538 24.02 181.038 23.8L181.638 27.43C181.398 27.55 181.078 27.67 180.678 27.79C180.278 27.91 179.828 28.01 179.328 28.09C178.848 28.19 178.328 28.27 177.768 28.33C177.208 28.39 176.648 28.42 176.088 28.42C174.668 28.42 173.428 28.21 172.368 27.79C171.328 27.37 170.458 26.8 169.758 26.08C169.078 25.34 168.568 24.47 168.228 23.47C167.908 22.47 167.748 21.39 167.748 20.23ZM178.248 18.52C178.228 18.14 178.158 17.77 178.038 17.41C177.938 17.05 177.768 16.73 177.528 16.45C177.308 16.17 177.018 15.94 176.658 15.76C176.318 15.58 175.888 15.49 175.368 15.49C174.868 15.49 174.438 15.58 174.078 15.76C173.718 15.92 173.418 16.14 173.178 16.42C172.938 16.7 172.748 17.03 172.608 17.41C172.488 17.77 172.398 18.14 172.338 18.52H178.248ZM190.398 25.63C190.398 26.53 190.108 27.22 189.528 27.7C188.968 28.16 188.328 28.39 187.608 28.39C186.888 28.39 186.238 28.16 185.658 27.7C185.098 27.22 184.818 26.53 184.818 25.63C184.818 24.73 185.098 24.05 185.658 23.59C186.238 23.11 186.888 22.87 187.608 22.87C188.328 22.87 188.968 23.11 189.528 23.59C190.108 24.05 190.398 24.73 190.398 25.63ZM193.251 8.29L197.721 7.57V12.22H203.091V15.94H197.721V21.49C197.721 22.43 197.881 23.18 198.201 23.74C198.541 24.3 199.211 24.58 200.211 24.58C200.691 24.58 201.181 24.54 201.681 24.46C202.201 24.36 202.671 24.23 203.091 24.07L203.721 27.55C203.181 27.77 202.581 27.96 201.921 28.12C201.261 28.28 200.451 28.36 199.491 28.36C198.271 28.36 197.261 28.2 196.461 27.88C195.661 27.54 195.021 27.08 194.541 26.5C194.061 25.9 193.721 25.18 193.521 24.34C193.341 23.5 193.251 22.57 193.251 21.55V8.29ZM211.201 17.92C211.641 17.44 212.091 16.94 212.551 16.42C213.031 15.9 213.491 15.39 213.931 14.89C214.371 14.37 214.781 13.88 215.161 13.42C215.561 12.96 215.901 12.56 216.181 12.22H221.491C220.431 13.44 219.391 14.61 218.371 15.73C217.371 16.83 216.271 17.97 215.071 19.15C215.671 19.69 216.291 20.34 216.931 21.1C217.571 21.84 218.191 22.61 218.791 23.41C219.391 24.21 219.941 25.01 220.441 25.81C220.941 26.61 221.361 27.34 221.701 28H216.571C216.251 27.48 215.881 26.91 215.461 26.29C215.061 25.65 214.631 25.02 214.171 24.4C213.711 23.76 213.221 23.15 212.701 22.57C212.201 21.99 211.701 21.5 211.201 21.1V28H206.731V5.44L211.201 4.72V17.92Z" fill="black"/>
<path fill-rule="evenodd" clip-rule="evenodd" d="M7.07106 34.769C7.07106 34.638 7.77816 31.0239 8.61621 26.7028C9.76853 20.7055 10.0566 18.8198 9.79472 18.7675C9.6114 18.7151 7.77816 18.8722 5.73541 19.0817C0.942807 19.6317 0 19.6317 0 19.0817C0 18.8722 2.90699 14.8391 6.4949 10.1251C11.8113 3.054 12.9898 1.66597 13.0422 2.21595C13.0945 2.5564 13.016 2.89686 12.8588 2.94924C12.7017 3.00162 12.5708 3.26351 12.5708 3.55159C12.5708 3.83967 10.8685 6.77285 8.77335 10.0989L4.94974 16.1486L8.45908 15.9652C12.7541 15.7295 13.0945 15.8605 13.0945 17.5628C13.0945 18.8984 8.95667 32.3072 8.04005 33.9833C7.54246 34.8737 7.07106 35.2404 7.07106 34.769Z" fill="#25F4EE"/>
<path fill-rule="evenodd" clip-rule="evenodd" d="M8.64291 33.9933C8.38102 33.8362 10.4325 31.7751 12.3443 25.7255C13.7062 21.4043 14.8323 17.6592 14.8323 17.4497C14.8323 16.6116 14.3652 14.7442 10.5154 15.0323C8.21079 15.2156 7.79176 15.1894 7.63463 15.0323C7.32036 14.718 14.2561 2.0032 14.8323 1.87226C15.2775 1.7675 15.7751 1.57907 14.4395 8.46683C13.7062 12.3428 13.6538 12.8404 14.0204 12.8404C14.2561 12.8404 16.0894 12.6047 18.1059 12.3166C22.4795 11.6881 22.6628 11.6881 22.8462 12.1595C22.9247 12.3428 20.2796 17.1354 16.9798 22.8185C13.7062 28.5015 10.6464 33.391 10.5154 33.6267C10.3583 33.9145 8.09294 35.093 7.88342 34.9621L8.64291 33.9933Z" fill="#FE2C55"/>
<path fill-rule="evenodd" clip-rule="evenodd" d="M7.21314 34.9881C6.95125 34.8313 8.0119 31.6493 9.92373 25.5995C11.2856 21.2783 12.4117 17.5333 12.4117 17.3238C12.4117 16.4857 11.4951 16.3548 7.64526 16.6428C5.34059 16.8262 3.87401 16.8524 3.71687 16.6952C3.4026 16.381 13.1991 1.26987 13.7752 1.13893C13.8421 1.12322 14.093 0.962834 14.3383 1.00798C14.5061 1.03886 14.563 1.40027 14.5592 1.58414C14.5431 2.3706 12.6016 5.54411 11.9682 8.81057C11.2349 12.6865 11.2332 12.7145 11.5998 12.7145C11.8355 12.7145 13.6688 12.4788 15.6853 12.1907C20.0589 11.5622 20.2423 11.5622 20.4256 12.0336C20.5041 12.2169 17.859 17.0095 14.5592 22.6925C11.2856 28.3757 8.94164 33.6004 8.81067 33.8361C8.65353 34.1242 7.42265 35.1194 7.21314 34.9881Z" fill="black"/>
</svg>
