<svg width="115" height="24" viewBox="0 0 115 24" fill="none" xmlns="http://www.w3.org/2000/svg">
<path d="M3.89206 12.784C3.89206 15.072 4.74006 16.216 6.43606 16.216C6.80406 16.216 7.16406 16.168 7.51606 16.072C7.88406 15.976 8.18006 15.856 8.40406 15.712V9.256C8.22806 9.224 8.00406 9.2 7.73206 9.184C7.46006 9.152 7.16406 9.136 6.84406 9.136C5.86806 9.136 5.13206 9.472 4.63606 10.144C4.14006 10.8 3.89206 11.68 3.89206 12.784ZM0.244063 12.688C0.244063 11.712 0.388063 10.824 0.676063 10.024C0.980063 9.208 1.41206 8.512 1.97206 7.936C2.53206 7.344 3.22006 6.888 4.03606 6.568C4.85206 6.248 5.78006 6.088 6.82006 6.088C7.25206 6.088 7.70006 6.112 8.16406 6.16C8.64406 6.192 9.10806 6.24 9.55606 6.304C10.0201 6.368 10.4601 6.448 10.8761 6.544C11.2921 6.624 11.6601 6.712 11.9801 6.808V23.44H8.40406V18.688C8.00406 18.864 7.58806 19 7.15606 19.096C6.72406 19.192 6.26006 19.24 5.76406 19.24C3.97206 19.24 2.60406 18.656 1.66006 17.488C0.716063 16.304 0.244063 14.704 0.244063 12.688ZM18.3764 12.784C18.3764 15.072 19.2244 16.216 20.9204 16.216C21.2884 16.216 21.6484 16.168 22.0004 16.072C22.3684 15.976 22.6644 15.856 22.8884 15.712V9.256C22.7124 9.224 22.4884 9.2 22.2164 9.184C21.9444 9.152 21.6484 9.136 21.3284 9.136C20.3524 9.136 19.6164 9.472 19.1204 10.144C18.6244 10.8 18.3764 11.68 18.3764 12.784ZM14.7284 12.688C14.7284 11.712 14.8724 10.824 15.1604 10.024C15.4644 9.208 15.8964 8.512 16.4564 7.936C17.0164 7.344 17.7044 6.888 18.5204 6.568C19.3364 6.248 20.2644 6.088 21.3044 6.088C21.7364 6.088 22.1844 6.112 22.6484 6.16C23.1284 6.192 23.5924 6.24 24.0404 6.304C24.5044 6.368 24.9444 6.448 25.3604 6.544C25.7764 6.624 26.1444 6.712 26.4644 6.808V23.44H22.8884V18.688C22.4884 18.864 22.0724 19 21.6404 19.096C21.2084 19.192 20.7444 19.24 20.2484 19.24C18.4564 19.24 17.0884 18.656 16.1444 17.488C15.2004 16.304 14.7284 14.704 14.7284 12.688ZM42.3888 2.368V5.56H37.3728V19H33.6288V5.56H28.6128V2.368H42.3888ZM48.131 19H44.555V6.376H48.131V19ZM48.467 2.728C48.467 3.384 48.251 3.904 47.819 4.288C47.403 4.656 46.907 4.84 46.331 4.84C45.755 4.84 45.251 4.656 44.819 4.288C44.403 3.904 44.195 3.384 44.195 2.728C44.195 2.072 44.403 1.56 44.819 1.192C45.251 0.807999 45.755 0.615999 46.331 0.615999C46.907 0.615999 47.403 0.807999 47.819 1.192C48.251 1.56 48.467 2.072 48.467 2.728ZM55.0685 10.936C55.4205 10.552 55.7805 10.152 56.1485 9.736C56.5325 9.32 56.9005 8.912 57.2525 8.512C57.6045 8.096 57.9325 7.704 58.2365 7.336C58.5565 6.968 58.8285 6.648 59.0525 6.376H63.3005C62.4525 7.352 61.6205 8.288 60.8045 9.184C60.0045 10.064 59.1245 10.976 58.1645 11.92C58.6445 12.352 59.1405 12.872 59.6525 13.48C60.1645 14.072 60.6605 14.688 61.1405 15.328C61.6205 15.968 62.0605 16.608 62.4605 17.248C62.8605 17.888 63.1965 18.472 63.4685 19H59.3645C59.1085 18.584 58.8125 18.128 58.4765 17.632C58.1565 17.12 57.8125 16.616 57.4445 16.12C57.0765 15.608 56.6845 15.12 56.2685 14.656C55.8685 14.192 55.4685 13.8 55.0685 13.48V19H51.4925V0.951999L55.0685 0.375999V10.936ZM69.1762 17.104C69.1762 17.824 68.9442 18.376 68.4802 18.76C68.0322 19.128 67.5202 19.312 66.9442 19.312C66.3682 19.312 65.8482 19.128 65.3842 18.76C64.9362 18.376 64.7122 17.824 64.7122 17.104C64.7122 16.384 64.9362 15.84 65.3842 15.472C65.8482 15.088 66.3682 14.896 66.9442 14.896C67.5202 14.896 68.0322 15.088 68.4802 15.472C68.9442 15.84 69.1762 16.384 69.1762 17.104ZM70.2519 12.688C70.2519 11.776 70.3959 10.92 70.6839 10.12C70.9879 9.304 71.4199 8.6 71.9799 8.008C72.5399 7.4 73.2199 6.92 74.0199 6.568C74.8199 6.216 75.7319 6.04 76.7559 6.04C77.4279 6.04 78.0439 6.104 78.6039 6.232C79.1639 6.344 79.7079 6.512 80.2359 6.736L79.4919 9.592C79.1559 9.464 78.7879 9.352 78.3879 9.256C77.9879 9.16 77.5399 9.112 77.0439 9.112C75.9879 9.112 75.1959 9.44 74.6679 10.096C74.1559 10.752 73.8999 11.616 73.8999 12.688C73.8999 13.824 74.1399 14.704 74.6199 15.328C75.1159 15.952 75.9719 16.264 77.1879 16.264C77.6199 16.264 78.0839 16.224 78.5799 16.144C79.0759 16.064 79.5319 15.936 79.9479 15.76L80.4519 18.688C80.0359 18.864 79.5159 19.016 78.8919 19.144C78.2679 19.272 77.5799 19.336 76.8279 19.336C75.6759 19.336 74.6839 19.168 73.8519 18.832C73.0199 18.48 72.3319 18.008 71.7879 17.416C71.2599 16.824 70.8679 16.128 70.6119 15.328C70.3719 14.512 70.2519 13.632 70.2519 12.688ZM94.0505 12.664C94.0505 13.656 93.9065 14.568 93.6185 15.4C93.3305 16.216 92.9145 16.92 92.3705 17.512C91.8265 18.088 91.1705 18.536 90.4025 18.856C89.6505 19.176 88.8025 19.336 87.8585 19.336C86.9305 19.336 86.0825 19.176 85.3145 18.856C84.5625 18.536 83.9145 18.088 83.3705 17.512C82.8265 16.92 82.4025 16.216 82.0985 15.4C81.7945 14.568 81.6425 13.656 81.6425 12.664C81.6425 11.672 81.7945 10.768 82.0985 9.952C82.4185 9.136 82.8505 8.44 83.3945 7.864C83.9545 7.288 84.6105 6.84 85.3625 6.52C86.1305 6.2 86.9625 6.04 87.8585 6.04C88.7705 6.04 89.6025 6.2 90.3545 6.52C91.1225 6.84 91.7785 7.288 92.3225 7.864C92.8665 8.44 93.2905 9.136 93.5945 9.952C93.8985 10.768 94.0505 11.672 94.0505 12.664ZM90.4025 12.664C90.4025 11.56 90.1785 10.696 89.7305 10.072C89.2985 9.432 88.6745 9.112 87.8585 9.112C87.0425 9.112 86.4105 9.432 85.9625 10.072C85.5145 10.696 85.2905 11.56 85.2905 12.664C85.2905 13.768 85.5145 14.648 85.9625 15.304C86.4105 15.944 87.0425 16.264 87.8585 16.264C88.6745 16.264 89.2985 15.944 89.7305 15.304C90.1785 14.648 90.4025 13.768 90.4025 12.664ZM103.757 12.304C103.757 11.152 103.605 10.336 103.301 9.856C103.013 9.376 102.509 9.136 101.789 9.136C101.565 9.136 101.333 9.152 101.093 9.184C100.853 9.2 100.621 9.224 100.397 9.256V19H96.8206V6.808C97.1246 6.728 97.4766 6.648 97.8766 6.568C98.2926 6.472 98.7246 6.392 99.1726 6.328C99.6366 6.248 100.109 6.192 100.589 6.16C101.069 6.112 101.541 6.088 102.005 6.088C102.917 6.088 103.653 6.208 104.213 6.448C104.789 6.672 105.261 6.944 105.629 7.264C106.141 6.896 106.725 6.608 107.381 6.4C108.053 6.192 108.669 6.088 109.229 6.088C110.237 6.088 111.061 6.232 111.701 6.52C112.357 6.792 112.877 7.184 113.261 7.696C113.645 8.208 113.909 8.816 114.053 9.52C114.197 10.224 114.269 11.008 114.269 11.872V19H110.693V12.304C110.693 11.152 110.541 10.336 110.237 9.856C109.949 9.376 109.445 9.136 108.725 9.136C108.533 9.136 108.261 9.184 107.909 9.28C107.573 9.376 107.293 9.496 107.069 9.64C107.181 10.008 107.253 10.4 107.285 10.816C107.317 11.216 107.333 11.648 107.333 12.112V19H103.757V12.304Z" fill="black"/>
</svg>
