<svg width="174" height="35" viewBox="0 0 174 35" fill="none" xmlns="http://www.w3.org/2000/svg">
<path d="M33.91 20.23C33.91 23.09 34.97 24.52 37.09 24.52C37.55 24.52 38 24.46 38.44 24.34C38.9 24.22 39.27 24.07 39.55 23.89V15.82C39.33 15.78 39.05 15.75 38.71 15.73C38.37 15.69 38 15.67 37.6 15.67C36.38 15.67 35.46 16.09 34.84 16.93C34.22 17.75 33.91 18.85 33.91 20.23ZM29.35 20.11C29.35 18.89 29.53 17.78 29.89 16.78C30.27 15.76 30.81 14.89 31.51 14.17C32.21 13.43 33.07 12.86 34.09 12.46C35.11 12.06 36.27 11.86 37.57 11.86C38.11 11.86 38.67 11.89 39.25 11.95C39.85 11.99 40.43 12.05 40.99 12.13C41.57 12.21 42.12 12.31 42.64 12.43C43.16 12.53 43.62 12.64 44.02 12.76V33.55H39.55V27.61C39.05 27.83 38.53 28 37.99 28.12C37.45 28.24 36.87 28.3 36.25 28.3C34.01 28.3 32.3 27.57 31.12 26.11C29.94 24.63 29.35 22.63 29.35 20.11ZM52.0155 20.23C52.0155 23.09 53.0755 24.52 55.1955 24.52C55.6555 24.52 56.1055 24.46 56.5455 24.34C57.0055 24.22 57.3755 24.07 57.6555 23.89V15.82C57.4355 15.78 57.1555 15.75 56.8155 15.73C56.4755 15.69 56.1055 15.67 55.7055 15.67C54.4855 15.67 53.5655 16.09 52.9455 16.93C52.3255 17.75 52.0155 18.85 52.0155 20.23ZM47.4555 20.11C47.4555 18.89 47.6355 17.78 47.9955 16.78C48.3755 15.76 48.9155 14.89 49.6155 14.17C50.3155 13.43 51.1755 12.86 52.1955 12.46C53.2155 12.06 54.3755 11.86 55.6755 11.86C56.2155 11.86 56.7755 11.89 57.3555 11.95C57.9555 11.99 58.5355 12.05 59.0955 12.13C59.6755 12.21 60.2255 12.31 60.7455 12.43C61.2655 12.53 61.7255 12.64 62.1255 12.76V33.55H57.6555V27.61C57.1555 27.83 56.6355 28 56.0955 28.12C55.5555 28.24 54.9755 28.3 54.3555 28.3C52.1155 28.3 50.4055 27.57 49.2255 26.11C48.0455 24.63 47.4555 22.63 47.4555 20.11ZM82.0309 7.21V11.2H75.7609V28H71.0809V11.2H64.8109V7.21H82.0309ZM89.2087 28H84.7387V12.22H89.2087V28ZM89.6287 7.66C89.6287 8.48 89.3587 9.13 88.8187 9.61C88.2987 10.07 87.6787 10.3 86.9587 10.3C86.2387 10.3 85.6087 10.07 85.0687 9.61C84.5487 9.13 84.2887 8.48 84.2887 7.66C84.2887 6.84 84.5487 6.2 85.0687 5.74C85.6087 5.26 86.2387 5.02 86.9587 5.02C87.6787 5.02 88.2987 5.26 88.8187 5.74C89.3587 6.2 89.6287 6.84 89.6287 7.66ZM97.8805 17.92C98.3205 17.44 98.7705 16.94 99.2305 16.42C99.7105 15.9 100.171 15.39 100.611 14.89C101.051 14.37 101.461 13.88 101.841 13.42C102.241 12.96 102.581 12.56 102.861 12.22H108.171C107.111 13.44 106.071 14.61 105.051 15.73C104.051 16.83 102.951 17.97 101.751 19.15C102.351 19.69 102.971 20.34 103.611 21.1C104.251 21.84 104.871 22.61 105.471 23.41C106.071 24.21 106.621 25.01 107.121 25.81C107.621 26.61 108.041 27.34 108.381 28H103.251C102.931 27.48 102.561 26.91 102.141 26.29C101.741 25.65 101.311 25.02 100.851 24.4C100.391 23.76 99.9005 23.15 99.3805 22.57C98.8805 21.99 98.3805 21.5 97.8805 21.1V28H93.4105V5.44L97.8805 4.72V17.92ZM115.515 25.63C115.515 26.53 115.225 27.22 114.645 27.7C114.085 28.16 113.445 28.39 112.725 28.39C112.005 28.39 111.355 28.16 110.775 27.7C110.215 27.22 109.935 26.53 109.935 25.63C109.935 24.73 110.215 24.05 110.775 23.59C111.355 23.11 112.005 22.87 112.725 22.87C113.445 22.87 114.085 23.11 114.645 23.59C115.225 24.05 115.515 24.73 115.515 25.63ZM116.86 20.11C116.86 18.97 117.04 17.9 117.4 16.9C117.78 15.88 118.32 15 119.02 14.26C119.72 13.5 120.57 12.9 121.57 12.46C122.57 12.02 123.71 11.8 124.99 11.8C125.83 11.8 126.6 11.88 127.3 12.04C128 12.18 128.68 12.39 129.34 12.67L128.41 16.24C127.99 16.08 127.53 15.94 127.03 15.82C126.53 15.7 125.97 15.64 125.35 15.64C124.03 15.64 123.04 16.05 122.38 16.87C121.74 17.69 121.42 18.77 121.42 20.11C121.42 21.53 121.72 22.63 122.32 23.41C122.94 24.19 124.01 24.58 125.53 24.58C126.07 24.58 126.65 24.53 127.27 24.43C127.89 24.33 128.46 24.17 128.98 23.95L129.61 27.61C129.09 27.83 128.44 28.02 127.66 28.18C126.88 28.34 126.02 28.42 125.08 28.42C123.64 28.42 122.4 28.21 121.36 27.79C120.32 27.35 119.46 26.76 118.78 26.02C118.12 25.28 117.63 24.41 117.31 23.41C117.01 22.39 116.86 21.29 116.86 20.11ZM146.608 20.08C146.608 21.32 146.428 22.46 146.068 23.5C145.708 24.52 145.188 25.4 144.508 26.14C143.828 26.86 143.008 27.42 142.048 27.82C141.108 28.22 140.048 28.42 138.868 28.42C137.708 28.42 136.648 28.22 135.688 27.82C134.748 27.42 133.938 26.86 133.258 26.14C132.578 25.4 132.048 24.52 131.668 23.5C131.288 22.46 131.098 21.32 131.098 20.08C131.098 18.84 131.288 17.71 131.668 16.69C132.068 15.67 132.608 14.8 133.288 14.08C133.988 13.36 134.808 12.8 135.748 12.4C136.708 12 137.748 11.8 138.868 11.8C140.008 11.8 141.048 12 141.988 12.4C142.948 12.8 143.768 13.36 144.448 14.08C145.128 14.8 145.658 15.67 146.038 16.69C146.418 17.71 146.608 18.84 146.608 20.08ZM142.048 20.08C142.048 18.7 141.768 17.62 141.208 16.84C140.668 16.04 139.888 15.64 138.868 15.64C137.848 15.64 137.058 16.04 136.498 16.84C135.938 17.62 135.658 18.7 135.658 20.08C135.658 21.46 135.938 22.56 136.498 23.38C137.058 24.18 137.848 24.58 138.868 24.58C139.888 24.58 140.668 24.18 141.208 23.38C141.768 22.56 142.048 21.46 142.048 20.08ZM158.741 19.63C158.741 18.19 158.551 17.17 158.171 16.57C157.811 15.97 157.181 15.67 156.281 15.67C156.001 15.67 155.711 15.69 155.411 15.73C155.111 15.75 154.821 15.78 154.541 15.82V28H150.071V12.76C150.451 12.66 150.891 12.56 151.391 12.46C151.911 12.34 152.451 12.24 153.011 12.16C153.591 12.06 154.181 11.99 154.781 11.95C155.381 11.89 155.971 11.86 156.551 11.86C157.691 11.86 158.611 12.01 159.311 12.31C160.031 12.59 160.621 12.93 161.081 13.33C161.721 12.87 162.451 12.51 163.271 12.25C164.111 11.99 164.881 11.86 165.581 11.86C166.841 11.86 167.871 12.04 168.671 12.4C169.491 12.74 170.141 13.23 170.621 13.87C171.101 14.51 171.431 15.27 171.611 16.15C171.791 17.03 171.881 18.01 171.881 19.09V28H167.411V19.63C167.411 18.19 167.221 17.17 166.841 16.57C166.481 15.97 165.851 15.67 164.951 15.67C164.711 15.67 164.371 15.73 163.931 15.85C163.511 15.97 163.161 16.12 162.881 16.3C163.021 16.76 163.111 17.25 163.151 17.77C163.191 18.27 163.211 18.81 163.211 19.39V28H158.741V19.63Z" fill="black"/>
<path fill-rule="evenodd" clip-rule="evenodd" d="M7.07106 34.769C7.07106 34.638 7.77816 31.0239 8.61621 26.7028C9.76853 20.7055 10.0566 18.8198 9.79472 18.7675C9.6114 18.7151 7.77816 18.8722 5.73541 19.0817C0.942807 19.6317 0 19.6317 0 19.0817C0 18.8722 2.90699 14.8391 6.4949 10.1251C11.8113 3.054 12.9898 1.66597 13.0422 2.21595C13.0945 2.5564 13.016 2.89686 12.8588 2.94924C12.7017 3.00162 12.5708 3.26351 12.5708 3.55159C12.5708 3.83967 10.8685 6.77285 8.77335 10.0989L4.94974 16.1486L8.45908 15.9652C12.7541 15.7295 13.0945 15.8605 13.0945 17.5628C13.0945 18.8984 8.95667 32.3072 8.04005 33.9833C7.54246 34.8737 7.07106 35.2404 7.07106 34.769Z" fill="#25F4EE"/>
<path fill-rule="evenodd" clip-rule="evenodd" d="M8.64291 33.9933C8.38102 33.8362 10.4325 31.7751 12.3443 25.7255C13.7062 21.4043 14.8323 17.6592 14.8323 17.4497C14.8323 16.6116 14.3652 14.7442 10.5154 15.0323C8.21079 15.2156 7.79176 15.1894 7.63463 15.0323C7.32036 14.718 14.2561 2.0032 14.8323 1.87226C15.2775 1.7675 15.7751 1.57907 14.4395 8.46683C13.7062 12.3428 13.6538 12.8404 14.0204 12.8404C14.2561 12.8404 16.0894 12.6047 18.1059 12.3166C22.4795 11.6881 22.6628 11.6881 22.8462 12.1595C22.9247 12.3428 20.2796 17.1354 16.9798 22.8185C13.7062 28.5015 10.6464 33.391 10.5154 33.6267C10.3583 33.9145 8.09294 35.093 7.88342 34.9621L8.64291 33.9933Z" fill="#FE2C55"/>
<path fill-rule="evenodd" clip-rule="evenodd" d="M7.21314 34.9881C6.95125 34.8313 8.0119 31.6493 9.92373 25.5995C11.2856 21.2783 12.4117 17.5333 12.4117 17.3238C12.4117 16.4857 11.4951 16.3548 7.64526 16.6428C5.34059 16.8262 3.87401 16.8524 3.71687 16.6952C3.4026 16.381 13.1991 1.26987 13.7752 1.13893C13.8421 1.12322 14.093 0.962834 14.3383 1.00798C14.5061 1.03886 14.563 1.40027 14.5592 1.58414C14.5431 2.3706 12.6016 5.54411 11.9682 8.81057C11.2349 12.6865 11.2332 12.7145 11.5998 12.7145C11.8355 12.7145 13.6688 12.4788 15.6853 12.1907C20.0589 11.5622 20.2423 11.5622 20.4256 12.0336C20.5041 12.2169 17.859 17.0095 14.5592 22.6925C11.2856 28.3757 8.94164 33.6004 8.81067 33.8361C8.65353 34.1242 7.42265 35.1194 7.21314 34.9881Z" fill="black"/>
</svg>
