<svg width="18" height="18" viewBox="0 0 18 18" fill="none" xmlns="http://www.w3.org/2000/svg">
<path d="M5.11313 7.55325L4.62375 9H3.375L5.46975 3.375H6.91425L9 9H7.68713L7.19775 7.55325H5.11313ZM6.95138 6.72525L6.1875 4.4505H6.13238L5.3685 6.72525H6.9525H6.95138Z" fill="#555555"/>
<path d="M0 2.25C0 1.65326 0.237053 1.08097 0.65901 0.65901C1.08097 0.237053 1.65326 0 2.25 0L10.125 0C10.7217 0 11.294 0.237053 11.716 0.65901C12.1379 1.08097 12.375 1.65326 12.375 2.25V5.625H15.75C16.3467 5.625 16.919 5.86205 17.341 6.28401C17.7629 6.70597 18 7.27826 18 7.875V15.75C18 16.3467 17.7629 16.919 17.341 17.341C16.919 17.7629 16.3467 18 15.75 18H7.875C7.27826 18 6.70597 17.7629 6.28401 17.341C5.86205 16.919 5.625 16.3467 5.625 15.75V12.375H2.25C1.65326 12.375 1.08097 12.1379 0.65901 11.716C0.237053 11.294 0 10.7217 0 10.125V2.25ZM2.25 1.125C1.95163 1.125 1.66548 1.24353 1.4545 1.4545C1.24353 1.66548 1.125 1.95163 1.125 2.25V10.125C1.125 10.4234 1.24353 10.7095 1.4545 10.9205C1.66548 11.1315 1.95163 11.25 2.25 11.25H10.125C10.4234 11.25 10.7095 11.1315 10.9205 10.9205C11.1315 10.7095 11.25 10.4234 11.25 10.125V2.25C11.25 1.95163 11.1315 1.66548 10.9205 1.4545C10.7095 1.24353 10.4234 1.125 10.125 1.125H2.25ZM10.2802 12.3694C10.4974 12.708 10.7325 13.0252 10.989 13.3211C10.1475 13.968 9.10688 14.4473 7.875 14.7746C8.07525 15.0188 8.38237 15.489 8.49937 15.75C9.765 15.3461 10.8394 14.8005 11.7461 14.0692C12.6202 14.8174 13.7025 15.3799 15.0424 15.7252C15.192 15.4395 15.5081 14.9681 15.75 14.724C14.4844 14.4394 13.4359 13.9432 12.5775 13.2795C13.3436 12.4391 13.9522 11.4221 14.4011 10.1779H15.75V9H12.375V10.1779H13.2356C12.8779 11.1274 12.4031 11.9171 11.8046 12.5741C11.6393 12.398 11.4835 12.2133 11.3378 12.0206C11.0203 12.2242 10.6565 12.3441 10.2802 12.3694Z" fill="#555555"/>
</svg>
